# Blender 3.6.2
# www.blender.org
mtllib cereal_low.mtl
o cereal_low
v 0.236346 -0.123944 -0.018891
v 0.236346 -0.130614 -0.020966
v 0.565760 -0.130614 -0.020966
v 0.565760 -0.123944 -0.018891
v 0.236346 -0.133378 -0.025974
v 0.565760 -0.133378 -0.025974
v 0.229484 -0.123944 -0.025974
v 0.232065 -0.123944 -0.021556
v 0.232474 0.340101 -0.020299
v 0.229218 0.339818 -0.023201
v 0.236374 0.340667 -0.018891
v 0.236374 0.350102 -0.077917
v 0.233834 0.349138 -0.077917
v 0.233600 0.349197 -0.052786
v 0.236374 0.350102 -0.052563
v 0.236374 0.350102 -0.025974
v 0.236374 0.348133 -0.022194
v 0.565732 0.348133 -0.022194
v 0.565732 0.350102 -0.025974
v 0.236374 0.344882 -0.020013
v 0.565732 0.340667 -0.018891
v 0.565732 0.344882 -0.020013
v 0.231494 -0.130614 -0.025974
v 0.233318 -0.130614 -0.022850
v 0.232551 0.344495 -0.021401
v 0.229944 0.346097 -0.025236
v 0.232830 0.347861 -0.023592
v 0.233358 0.349260 -0.026429
v 0.230690 0.347335 -0.026885
v 0.231494 -0.130614 -0.077917
v 0.236346 -0.133378 -0.077917
v 0.229484 -0.123944 -0.077917
v 0.229513 0.340667 -0.077917
v 0.229149 0.343267 -0.023918
v 0.227300 0.342226 -0.026885
v 0.228134 0.341637 -0.025973
v 0.224744 0.307366 -0.037384
v 0.225618 0.306683 -0.036575
v 0.223996 0.297302 -0.043477
v 0.224856 0.296175 -0.042954
v 0.223601 0.293511 -0.078082
v 0.224447 0.292219 -0.078150
v 0.224539 0.292219 -0.052679
v 0.223688 0.293517 -0.052777
v 0.227514 0.292219 -0.078356
v 0.227603 0.292219 -0.052841
v 0.228199 0.306567 -0.036648
v 0.227300 0.342226 -0.053008
v 0.231115 0.347336 -0.053008
v 0.231522 0.347338 -0.077917
v 0.227300 0.342226 -0.077917
v 0.227784 0.296135 -0.043107
v 0.224701 0.308025 -0.078033
v 0.224764 0.308029 -0.052846
v 0.572622 -0.123944 -0.025974
v 0.572888 0.339818 -0.023201
v 0.569632 0.340101 -0.020299
v 0.570041 -0.123944 -0.021556
v 0.565732 0.350102 -0.077917
v 0.565732 0.350102 -0.052563
v 0.568504 0.349197 -0.052786
v 0.568272 0.349138 -0.077917
v 0.570613 -0.130614 -0.025974
v 0.568786 -0.130614 -0.022850
v 0.569555 0.344495 -0.021401
v 0.572162 0.346097 -0.025236
v 0.571416 0.347335 -0.026885
v 0.568748 0.349260 -0.026429
v 0.569276 0.347861 -0.023592
v 0.565760 -0.133378 -0.077917
v 0.570613 -0.130614 -0.077917
v 0.572622 -0.123944 -0.077917
v 0.572593 0.340667 -0.077917
v 0.572957 0.343267 -0.023918
v 0.573970 0.341637 -0.025973
v 0.574806 0.342226 -0.026885
v 0.576488 0.306683 -0.036575
v 0.577362 0.307366 -0.037384
v 0.577250 0.296175 -0.042954
v 0.578111 0.297302 -0.043477
v 0.578505 0.293511 -0.078082
v 0.578418 0.293517 -0.052777
v 0.577568 0.292219 -0.052679
v 0.577659 0.292219 -0.078150
v 0.574503 0.292219 -0.052841
v 0.574592 0.292219 -0.078356
v 0.573907 0.306567 -0.036648
v 0.574806 0.342226 -0.053008
v 0.574806 0.342226 -0.077917
v 0.570584 0.347338 -0.077917
v 0.570991 0.347336 -0.053008
v 0.574320 0.296135 -0.043107
v 0.577403 0.308025 -0.078033
v 0.577342 0.308029 -0.052846
v 0.229484 -0.123944 -0.129860
v 0.229218 0.339818 -0.132633
v 0.232474 0.340101 -0.135535
v 0.232065 -0.123944 -0.134278
v 0.236374 0.340667 -0.136943
v 0.236346 -0.123944 -0.136943
v 0.236374 0.350102 -0.103271
v 0.233600 0.349197 -0.103048
v 0.565732 0.350102 -0.103271
v 0.565732 0.340667 -0.136943
v 0.565760 -0.123944 -0.136943
v 0.231494 -0.130614 -0.129860
v 0.233318 -0.130614 -0.132984
v 0.236346 -0.130614 -0.134868
v 0.236346 -0.133378 -0.129860
v 0.232551 0.344495 -0.134433
v 0.236374 0.344882 -0.135821
v 0.229944 0.346097 -0.130598
v 0.230690 0.347335 -0.128949
v 0.233358 0.349260 -0.129405
v 0.232830 0.347861 -0.132242
v 0.236346 -0.133378 -0.129860
v 0.565760 -0.133378 -0.129860
v 0.231494 -0.130614 -0.129860
v 0.229484 -0.123944 -0.129860
v 0.229218 0.339818 -0.132633
v 0.229149 0.343267 -0.131916
v 0.236374 0.348133 -0.133640
v 0.228134 0.341637 -0.129861
v 0.227300 0.342226 -0.128949
v 0.225618 0.306683 -0.119259
v 0.224744 0.307366 -0.118450
v 0.224856 0.296175 -0.112880
v 0.223996 0.297302 -0.112357
v 0.223601 0.293511 -0.077752
v 0.223688 0.293517 -0.103057
v 0.224539 0.292219 -0.103155
v 0.224447 0.292219 -0.077684
v 0.227603 0.292219 -0.102993
v 0.227514 0.292219 -0.077478
v 0.228199 0.306567 -0.119186
v 0.227300 0.342226 -0.102826
v 0.231115 0.347336 -0.102826
v 0.227784 0.296135 -0.112727
v 0.224701 0.308025 -0.077801
v 0.224764 0.308029 -0.102988
v 0.236374 0.350102 -0.129860
v 0.233358 0.349260 -0.129405
v 0.565732 0.350102 -0.129860
v 0.565760 -0.130614 -0.134868
v 0.565760 -0.133378 -0.129860
v 0.572622 -0.123944 -0.129860
v 0.570041 -0.123944 -0.134278
v 0.569632 0.340101 -0.135535
v 0.572888 0.339818 -0.132633
v 0.568504 0.349197 -0.103048
v 0.565732 0.348133 -0.133640
v 0.565732 0.344882 -0.135821
v 0.570613 -0.130614 -0.129860
v 0.568786 -0.130614 -0.132984
v 0.569555 0.344495 -0.134433
v 0.572162 0.346097 -0.130598
v 0.569276 0.347861 -0.132242
v 0.568748 0.349260 -0.129405
v 0.571416 0.347335 -0.128949
v 0.570613 -0.130614 -0.129860
v 0.572622 -0.123944 -0.129860
v 0.572888 0.339818 -0.132633
v 0.572957 0.343267 -0.131916
v 0.572162 0.346097 -0.130598
v 0.571416 0.347335 -0.128949
v 0.574806 0.342226 -0.128949
v 0.573970 0.341637 -0.129861
v 0.577362 0.307366 -0.118450
v 0.576488 0.306683 -0.119259
v 0.578111 0.297302 -0.112357
v 0.577250 0.296175 -0.112880
v 0.578505 0.293511 -0.077752
v 0.577659 0.292219 -0.077684
v 0.577568 0.292219 -0.103155
v 0.578418 0.293517 -0.103057
v 0.574592 0.292219 -0.077478
v 0.574503 0.292219 -0.102993
v 0.572888 0.339818 -0.132633
v 0.573907 0.306567 -0.119186
v 0.574806 0.342226 -0.102826
v 0.570991 0.347336 -0.102826
v 0.572957 0.343267 -0.131916
v 0.574320 0.296135 -0.112727
v 0.577403 0.308025 -0.077801
v 0.577342 0.308029 -0.102988
v 0.568748 0.349260 -0.129405
vn 0.0061 -0.0044 1.0000
vn -0.0061 -0.0044 1.0000
vn -0.0056 -0.5995 0.8004
vn 0.0055 -0.5995 0.8004
vn -0.0079 -0.9988 0.0481
vn 0.0079 -0.9988 0.0481
vn -0.9986 -0.0010 0.0528
vn -0.9988 -0.0046 0.0479
vn -0.6320 -0.0052 0.7749
vn -0.6214 -0.0001 0.7835
vn -0.0057 0.0024 1.0000
vn -0.0027 1.0000 -0.0000
vn -0.0028 1.0000 -0.0000
vn -0.4783 0.8782 -0.0000
vn -0.4643 0.8857 -0.0057
vn 0.0024 0.9979 0.0647
vn -0.0024 0.9979 0.0647
vn -0.0033 0.7519 0.6592
vn 0.0033 0.7519 0.6592
vn 0.0042 0.4044 0.9146
vn -0.0042 0.4044 0.9146
vn 0.0057 0.0024 1.0000
vn -0.6289 -0.4829 0.6093
vn -0.8121 -0.5826 0.0328
vn -0.4976 0.3486 0.7943
vn -0.7437 0.6684 0.0107
vn -0.7305 0.5065 0.4581
vn -0.4637 0.6703 0.5793
vn -0.4354 0.8994 0.0391
vn -0.8088 -0.5882 -0.0000
vn -0.0082 -1.0000 -0.0000
vn -1.0000 -0.0044 -0.0000
vn -1.0000 0.0001 -0.0000
vn -0.7623 0.2761 0.5854
vn -0.7294 -0.1382 0.6700
vn -0.9831 0.1775 0.0452
vn -0.5901 -0.2795 0.7574
vn -0.9974 0.0574 0.0432
vn -0.2613 -0.7189 0.6442
vn -0.9983 0.0111 0.0580
vn -0.9999 0.0093 0.0103
vn -0.9999 0.0130 0.0030
vn -0.2978 -0.9546 0.0011
vn -0.3027 -0.9468 0.1097
vn 0.0038 -0.9944 0.1054
vn -0.0000 -1.0000 -0.0000
vn -0.4937 -0.3244 0.8069
vn -0.9864 0.1646 -0.0007
vn -0.9859 0.1671 -0.0003
vn -0.7419 0.6705 -0.0073
vn -0.7333 0.6799 -0.0000
vn 0.0177 -0.7577 0.6524
vn -0.9972 0.0748 0.0017
vn -0.9972 0.0742 0.0015
vn 0.6320 -0.0052 0.7749
vn 0.9988 -0.0046 0.0479
vn 0.9986 -0.0010 0.0528
vn 0.6214 -0.0001 0.7835
vn 0.4783 0.8782 -0.0000
vn 0.0028 1.0000 -0.0000
vn 0.0027 1.0000 -0.0000
vn 0.4643 0.8857 -0.0057
vn 0.8121 -0.5826 0.0328
vn 0.6289 -0.4829 0.6093
vn 0.4976 0.3486 0.7943
vn 0.4637 0.6703 0.5793
vn 0.7305 0.5065 0.4581
vn 0.7437 0.6684 0.0107
vn 0.4355 0.8994 0.0391
vn 0.0083 -1.0000 -0.0000
vn 0.8088 -0.5881 -0.0000
vn 1.0000 -0.0044 -0.0000
vn 1.0000 0.0001 -0.0000
vn 0.7623 0.2761 0.5854
vn 0.7294 -0.1382 0.6700
vn 0.9831 0.1775 0.0451
vn 0.5901 -0.2795 0.7574
vn 0.9974 0.0575 0.0432
vn 0.2613 -0.7189 0.6442
vn 0.9983 0.0110 0.0580
vn 0.2979 -0.9546 0.0011
vn 0.9999 0.0131 0.0042
vn 0.9999 0.0093 0.0103
vn 0.3026 -0.9468 0.1098
vn -0.0038 -0.9944 0.1054
vn 0.4937 -0.3244 0.8069
vn 0.7419 0.6705 -0.0073
vn 0.9859 0.1671 -0.0003
vn 0.9864 0.1646 0.0007
vn 0.7333 0.6799 -0.0000
vn -0.0177 -0.7577 0.6524
vn 0.9972 0.0742 0.0015
vn 0.9972 0.0747 0.0017
vn -0.6320 -0.0052 -0.7749
vn -0.9988 -0.0045 -0.0480
vn -0.9986 -0.0010 -0.0528
vn -0.6215 -0.0001 -0.7835
vn -0.0061 -0.0044 -1.0000
vn -0.0057 0.0024 -1.0000
vn -0.4643 0.8857 0.0057
vn 0.0027 1.0000 0.0012
vn 0.0061 -0.0044 -1.0000
vn 0.0057 0.0024 -1.0000
vn -0.0079 -0.9988 -0.0481
vn -0.8121 -0.5826 -0.0328
vn -0.6289 -0.4829 -0.6093
vn -0.0056 -0.5995 -0.8004
vn -0.4976 0.3485 -0.7943
vn -0.0042 0.4044 -0.9146
vn -0.4638 0.6703 -0.5793
vn -0.7305 0.5065 -0.4581
vn -0.7437 0.6684 -0.0107
vn -0.4354 0.8994 -0.0391
vn 0.0079 -0.9988 -0.0481
vn -0.0078 -0.9988 -0.0481
vn -0.9988 -0.0045 -0.0479
vn -0.7623 0.2761 -0.5854
vn -0.0033 0.7519 -0.6592
vn -0.7294 -0.1382 -0.6700
vn -0.9831 0.1775 -0.0452
vn -0.5901 -0.2796 -0.7573
vn -0.9974 0.0575 -0.0432
vn -0.2613 -0.7189 -0.6442
vn -0.9983 0.0110 -0.0580
vn -0.2978 -0.9546 -0.0011
vn -0.9999 0.0130 -0.0042
vn -0.9999 0.0093 -0.0103
vn -0.3027 -0.9468 -0.1097
vn 0.0038 -0.9944 -0.1054
vn -0.4937 -0.3244 -0.8069
vn -0.7419 0.6705 0.0073
vn -0.9859 0.1671 0.0003
vn 0.0177 -0.7577 -0.6524
vn -0.9972 0.0742 -0.0015
vn -0.9972 0.0748 -0.0017
vn -0.0024 0.9979 -0.0647
vn -0.4355 0.8994 -0.0391
vn 0.0024 0.9979 -0.0647
vn 0.0056 -0.5995 -0.8004
vn 0.9986 -0.0010 -0.0528
vn 0.9988 -0.0045 -0.0479
vn 0.6320 -0.0052 -0.7749
vn 0.6214 -0.0001 -0.7835
vn 0.4643 0.8857 0.0057
vn 0.0033 0.7519 -0.6592
vn 0.0042 0.4044 -0.9146
vn 0.6289 -0.4829 -0.6093
vn 0.8121 -0.5826 -0.0328
vn 0.4976 0.3485 -0.7943
vn 0.7438 0.6684 -0.0107
vn 0.7305 0.5065 -0.4581
vn 0.4637 0.6703 -0.5793
vn 0.4354 0.8994 -0.0391
vn 0.7623 0.2761 -0.5854
vn 0.7294 -0.1382 -0.6700
vn 0.7304 0.5065 -0.4581
vn 0.9831 0.1775 -0.0451
vn 0.5901 -0.2795 -0.7574
vn 0.9974 0.0575 -0.0432
vn 0.2613 -0.7189 -0.6442
vn 0.9983 0.0110 -0.0580
vn 0.9999 0.0093 -0.0103
vn 0.9999 0.0130 -0.0030
vn 0.2979 -0.9546 -0.0011
vn 0.3027 -0.9468 -0.1098
vn -0.0038 -0.9944 -0.1054
vn 0.4937 -0.3244 -0.8069
vn 0.9859 0.1671 0.0003
vn 0.7419 0.6705 0.0073
vn -0.0177 -0.7577 -0.6524
vn 0.9972 0.0748 -0.0017
vn 0.9972 0.0742 -0.0016
vn 0.4355 0.8994 -0.0391
vt 0.408096 0.080231
vt 0.109157 0.080095
vt 0.108191 0.076934
vt 0.409054 0.077060
vt 0.107255 0.074351
vt 0.409986 0.074472
vt 0.105550 0.455810
vt 0.104658 0.077446
vt 0.106925 0.078810
vt 0.109509 0.456099
vt 0.113252 0.456602
vt 0.113256 0.490078
vt 0.113062 0.512713
vt 0.110260 0.512656
vt 0.110594 0.489811
vt 0.404147 0.466554
vt 0.113561 0.467018
vt 0.113490 0.463468
vt 0.404200 0.463010
vt 0.404280 0.459769
vt 0.113393 0.460221
vt 0.404400 0.456159
vt 0.107126 0.076376
vt 0.106013 0.075613
vt 0.110682 0.460274
vt 0.109655 0.465166
vt 0.109051 0.463200
vt 0.111351 0.463634
vt 0.111684 0.466196
vt 0.087100 0.053885
vt 0.092493 0.049043
vt 0.080475 0.060075
vt 0.057494 0.452910
vt 0.107597 0.460234
vt 0.105710 0.460488
vt 0.105753 0.462169
vt 0.067797 0.467257
vt 0.068490 0.468547
vt 0.056925 0.473521
vt 0.058152 0.474301
vt 0.053683 0.482888
vt 0.050817 0.508116
vt 0.049245 0.508002
vt 0.052199 0.482576
vt 0.049194 0.481971
vt 0.046114 0.507835
vt 0.067057 0.464575
vt 0.100249 0.512474
vt 0.101825 0.488517
vt 0.107736 0.489521
vt 0.107224 0.512601
vt 0.054843 0.471458
vt 0.065543 0.509606
vt 0.067897 0.484413
vt 0.410324 0.078939
vt 0.412587 0.077570
vt 0.412076 0.455345
vt 0.408130 0.455639
vt 0.407609 0.512136
vt 0.404876 0.512146
vt 0.404552 0.489551
vt 0.407187 0.489261
vt 0.411215 0.075729
vt 0.410115 0.076479
vt 0.406996 0.459778
vt 0.406345 0.463146
vt 0.408666 0.462694
vt 0.408045 0.464677
vt 0.406023 0.465723
vt 0.424739 0.049148
vt 0.430127 0.053987
vt 0.436743 0.060171
vt 0.460099 0.452392
vt 0.410098 0.459699
vt 0.411927 0.459978
vt 0.411891 0.461647
vt 0.449605 0.465644
vt 0.448959 0.466955
vt 0.460801 0.471336
vt 0.459591 0.472200
vt 0.469596 0.506507
vt 0.467995 0.506668
vt 0.464466 0.480837
vt 0.465981 0.480458
vt 0.469044 0.479746
vt 0.472802 0.506253
vt 0.450252 0.462948
vt 0.410020 0.488958
vt 0.415882 0.487918
vt 0.417309 0.512251
vt 0.410561 0.512166
vt 0.462820 0.469139
vt 0.450010 0.482958
vt 0.452906 0.508686
vt 0.109770 0.979094
vt 0.105243 0.979140
vt 0.106126 0.569539
vt 0.110072 0.569443
vt 0.114207 0.979062
vt 0.113801 0.569084
vt 0.113431 0.535420
vt 0.110715 0.535675
vt 0.404725 0.534732
vt 0.404664 0.978726
vt 0.404476 0.569227
vt 0.114149 0.990234
vt 0.107825 0.986997
vt 0.111224 0.985629
vt 0.114186 0.985186
vt 0.111127 0.565351
vt 0.113892 0.565439
vt 0.111646 0.562064
vt 0.109528 0.562351
vt 0.110137 0.560426
vt 0.111614 0.559719
vt 0.440201 0.009864
vt 0.077032 0.009766
vt 0.061592 0.023224
vt 0.045971 0.043200
vt 0.009766 0.448190
vt 0.108039 0.565274
vt 0.113947 0.562166
vt 0.106189 0.564978
vt 0.106201 0.563326
vt 0.067051 0.559413
vt 0.067717 0.558053
vt 0.055356 0.553327
vt 0.056629 0.552455
vt 0.046688 0.516998
vt 0.048359 0.516863
vt 0.051659 0.543465
vt 0.050088 0.543827
vt 0.046911 0.544517
vt 0.043369 0.517194
vt 0.066392 0.562207
vt 0.107795 0.535957
vt 0.101776 0.536945
vt 0.053227 0.555583
vt 0.066667 0.541590
vt 0.063971 0.515259
vt 0.113979 0.558584
vt 0.112228 0.559353
vt 0.404534 0.558200
vt 0.404708 0.984847
vt 0.404761 0.989892
vt 0.411979 0.569956
vt 0.413616 0.978781
vt 0.409098 0.978749
vt 0.408127 0.569718
vt 0.407339 0.534681
vt 0.404509 0.561956
vt 0.404493 0.565402
vt 0.407690 0.985250
vt 0.411111 0.986594
vt 0.408066 0.565531
vt 0.411619 0.559935
vt 0.411803 0.562557
vt 0.407954 0.561736
vt 0.408106 0.558485
vt 0.455616 0.023313
vt 0.471201 0.043269
vt 0.507773 0.447619
vt 0.412362 0.566103
vt 0.415186 0.558882
vt 0.410922 0.559104
vt 0.409764 0.557567
vt 0.414789 0.557777
vt 0.446265 0.552356
vt 0.445707 0.551300
vt 0.455739 0.547772
vt 0.454722 0.547018
vt 0.459099 0.539634
vt 0.462342 0.516757
vt 0.463778 0.516912
vt 0.460427 0.539982
vt 0.463116 0.540642
vt 0.466635 0.517156
vt 0.446848 0.554535
vt 0.416376 0.561671
vt 0.415864 0.534954
vt 0.410137 0.534637
vt 0.413370 0.560590
vt 0.457415 0.549663
vt 0.448892 0.514999
vt 0.446373 0.537784
vt 0.407080 0.557858
s 1
usemtl CerealShdr
f 4/1/1 1/2/2 2/3/3
f 2/3/3 3/4/4 4/1/1
f 3/4/4 2/3/3 5/5/5
f 5/5/5 6/6/6 3/4/4
f 10/7/7 7/8/8 8/9/9
f 8/9/9 9/10/10 10/7/7
f 9/10/10 8/9/9 1/2/2
f 1/2/2 11/11/11 9/10/10
f 15/12/12 12/13/13 13/14/14
f 13/14/14 14/15/15 15/12/12
f 19/16/16 16/17/17 17/18/18
f 17/18/18 18/19/19 19/16/16
f 22/20/20 20/21/21 11/11/11
f 11/11/11 21/22/22 22/20/20
f 24/23/23 23/24/24 5/5/5
f 5/5/5 2/3/3 24/23/23
f 24/23/23 2/3/3 1/2/2
f 1/2/2 8/9/9 24/23/23
f 24/23/23 8/9/9 7/8/8
f 7/8/8 23/24/24 24/23/23
f 25/25/25 9/10/10 11/11/11
f 11/11/11 20/21/21 25/25/25
f 29/26/26 26/27/27 27/28/28
f 27/28/28 28/29/29 29/26/26
f 23/24/24 30/30/30 31/31/31
f 31/31/31 5/5/5 23/24/24
f 7/8/8 32/32/32 30/30/30
f 30/30/30 23/24/24 7/8/8
f 10/7/7 33/33/33 32/32/32
f 32/32/32 7/8/8 10/7/7
f 25/25/25 27/28/28 26/27/27
f 26/27/27 34/34/34 25/25/25
f 18/19/19 17/18/18 20/21/21
f 20/21/21 22/20/20 18/19/19
f 27/28/28 25/25/25 20/21/21
f 20/21/21 17/18/18 27/28/28
f 9/10/10 25/25/25 34/34/34
f 34/34/34 10/7/7 9/10/10
f 36/35/35 26/27/27 29/26/26
f 29/26/26 35/36/36 36/35/35
f 38/37/37 36/35/35 35/36/36
f 35/36/36 37/38/38 38/37/37
f 40/39/39 38/37/37 37/38/38
f 37/38/38 39/40/40 40/39/39
f 44/41/41 41/42/42 42/43/43
f 42/43/43 43/44/44 44/41/41
f 39/40/40 44/41/41 43/44/44
f 43/44/44 40/39/39 39/40/40
f 46/45/45 43/44/44 42/43/43
f 42/43/43 45/46/46 46/45/45
f 47/47/47 10/7/7 36/35/35
f 36/35/35 38/37/37 47/47/47
f 51/48/48 48/49/49 49/50/50
f 49/50/50 50/51/51 51/48/48
f 34/34/34 26/27/27 36/35/35
f 36/35/35 10/7/7 34/34/34
f 43/44/44 46/45/45 52/52/52
f 52/52/52 40/39/39 43/44/44
f 40/39/39 52/52/52 47/47/47
f 47/47/47 38/37/37 40/39/39
f 51/48/48 53/53/53 54/54/54
f 54/54/54 48/49/49 51/48/48
f 50/51/51 49/50/50 14/15/15
f 14/15/15 13/14/14 50/51/51
f 16/17/17 28/29/29 27/28/28
f 27/28/28 17/18/18 16/17/17
f 48/49/49 35/36/36 29/26/26
f 29/26/26 49/50/50 48/49/49
f 29/26/26 28/29/29 14/15/15
f 14/15/15 49/50/50 29/26/26
f 16/17/17 15/12/12 14/15/15
f 14/15/15 28/29/29 16/17/17
f 37/38/38 35/36/36 48/49/49
f 48/49/49 54/54/54 37/38/38
f 41/42/42 44/41/41 54/54/54
f 54/54/54 53/53/53 41/42/42
f 39/40/40 37/38/38 54/54/54
f 54/54/54 44/41/41 39/40/40
f 58/55/55 55/56/56 56/57/57
f 56/57/57 57/58/58 58/55/55
f 4/1/1 58/55/55 57/58/58
f 57/58/58 21/22/22 4/1/1
f 62/59/59 59/60/60 60/61/61
f 60/61/61 61/62/62 62/59/59
f 12/13/13 15/12/12 60/61/61
f 60/61/61 59/60/60 12/13/13
f 11/11/11 1/2/2 4/1/1
f 4/1/1 21/22/22 11/11/11
f 6/6/6 63/63/63 64/64/64
f 64/64/64 3/4/4 6/6/6
f 4/1/1 3/4/4 64/64/64
f 64/64/64 58/55/55 4/1/1
f 55/56/56 58/55/55 64/64/64
f 64/64/64 63/63/63 55/56/56
f 21/22/22 57/58/58 65/65/65
f 65/65/65 22/20/20 21/22/22
f 69/66/66 66/67/67 67/68/68
f 67/68/68 68/69/69 69/66/66
f 31/31/31 70/70/70 6/6/6
f 6/6/6 5/5/5 31/31/31
f 70/70/70 71/71/71 63/63/63
f 63/63/63 6/6/6 70/70/70
f 71/71/71 72/72/72 55/56/56
f 55/56/56 63/63/63 71/71/71
f 72/72/72 73/73/73 56/57/57
f 56/57/57 55/56/56 72/72/72
f 66/67/67 69/66/66 65/65/65
f 65/65/65 74/74/74 66/67/67
f 22/20/20 65/65/65 69/66/66
f 69/66/66 18/19/19 22/20/20
f 74/74/74 65/65/65 57/58/58
f 57/58/58 56/57/57 74/74/74
f 67/68/68 66/67/67 75/75/75
f 75/75/75 76/76/76 67/68/68
f 76/76/76 75/75/75 77/77/77
f 77/77/77 78/78/78 76/76/76
f 78/78/78 77/77/77 79/79/79
f 79/79/79 80/80/80 78/78/78
f 84/81/81 81/82/82 82/83/83
f 82/83/83 83/84/84 84/81/81
f 83/84/84 82/83/83 80/80/80
f 80/80/80 79/79/79 83/84/84
f 84/81/81 83/84/84 85/85/85
f 85/85/85 86/86/46 84/81/81
f 75/75/75 56/57/57 87/87/86
f 87/87/86 77/77/77 75/75/75
f 91/88/87 88/89/88 89/90/89
f 89/90/89 90/91/90 91/88/87
f 75/75/75 66/67/67 74/74/74
f 74/74/74 56/57/57 75/75/75
f 92/92/91 85/85/85 83/84/84
f 83/84/84 79/79/79 92/92/91
f 87/87/86 92/92/91 79/79/79
f 79/79/79 77/77/77 87/87/86
f 94/93/92 93/94/93 89/90/89
f 89/90/89 88/89/88 94/93/92
f 61/62/62 91/88/87 90/91/90
f 90/91/90 62/59/59 61/62/62
f 69/66/66 68/69/69 19/16/16
f 19/16/16 18/19/19 69/66/66
f 67/68/68 76/76/76 88/89/88
f 88/89/88 91/88/87 67/68/68
f 61/62/62 68/69/69 67/68/68
f 67/68/68 91/88/87 61/62/62
f 61/62/62 60/61/61 19/16/16
f 19/16/16 68/69/69 61/62/62
f 15/12/12 16/17/17 19/16/16
f 19/16/16 60/61/61 15/12/12
f 88/89/88 76/76/76 78/78/78
f 78/78/78 94/93/92 88/89/88
f 94/93/92 82/83/83 81/82/82
f 81/82/82 93/94/93 94/93/92
f 94/93/92 78/78/78 80/80/80
f 80/80/80 82/83/83 94/93/92
f 98/95/94 95/96/95 96/97/96
f 96/97/96 97/98/97 98/95/94
f 100/99/98 98/95/94 97/98/97
f 97/98/97 99/100/99 100/99/98
f 13/14/14 12/13/13 101/101/12
f 101/101/12 102/102/100 13/14/14
f 103/103/101 101/101/12 12/13/13
f 12/13/13 59/60/60 103/103/101
f 105/104/102 100/99/98 99/100/99
f 99/100/99 104/105/103 105/104/102
f 109/106/104 106/107/105 107/108/106
f 107/108/106 108/109/107 109/106/104
f 100/99/98 108/109/107 107/108/106
f 107/108/106 98/95/94 100/99/98
f 95/96/95 98/95/94 107/108/106
f 107/108/106 106/107/105 95/96/95
f 99/100/99 97/98/97 110/110/108
f 110/110/108 111/111/109 99/100/99
f 115/112/110 112/113/111 113/114/112
f 113/114/112 114/115/113 115/112/110
f 117/116/114 70/70/70 31/31/31
f 31/31/31 116/117/115 117/116/114
f 31/31/31 30/30/30 118/118/105
f 118/118/105 116/117/115 31/31/31
f 30/30/30 32/32/32 119/119/116
f 119/119/116 118/118/105 30/30/30
f 32/32/32 33/33/33 120/120/96
f 120/120/96 119/119/116 32/32/32
f 112/113/111 115/112/110 110/110/108
f 110/110/108 121/121/117 112/113/111
f 111/111/109 110/110/108 115/112/110
f 115/112/110 122/122/118 111/111/109
f 121/121/117 110/110/108 97/98/97
f 97/98/97 96/97/96 121/121/117
f 113/114/112 112/113/111 123/123/119
f 123/123/119 124/124/120 113/114/112
f 124/124/120 123/123/119 125/125/121
f 125/125/121 126/126/122 124/124/120
f 126/126/122 125/125/121 127/127/123
f 127/127/123 128/128/124 126/126/122
f 132/129/125 129/130/126 130/131/127
f 130/131/127 131/132/128 132/129/125
f 131/132/128 130/131/127 128/128/124
f 128/128/124 127/127/123 131/132/128
f 132/129/125 131/132/128 133/133/129
f 133/133/129 134/134/46 132/129/125
f 123/123/119 96/97/96 135/135/130
f 135/135/130 125/125/121 123/123/119
f 137/136/131 136/137/132 51/48/48
f 51/48/48 50/51/51 137/136/131
f 123/123/119 112/113/111 121/121/117
f 121/121/117 96/97/96 123/123/119
f 138/138/133 133/133/129 131/132/128
f 131/132/128 127/127/123 138/138/133
f 135/135/130 138/138/133 127/127/123
f 127/127/123 125/125/121 135/135/130
f 140/139/134 139/140/135 51/48/48
f 51/48/48 136/137/132 140/139/134
f 102/102/100 137/136/131 50/51/51
f 50/51/51 13/14/14 102/102/100
f 115/112/110 114/115/113 141/141/136
f 141/141/136 122/122/118 115/112/110
f 113/114/112 124/124/120 136/137/132
f 136/137/132 137/136/131 113/114/112
f 102/102/100 142/142/137 113/114/112
f 113/114/112 137/136/131 102/102/100
f 102/102/100 101/101/12 141/141/136
f 141/141/136 142/142/137 102/102/100
f 143/143/138 141/141/136 101/101/12
f 101/101/12 103/103/101 143/143/138
f 136/137/132 124/124/120 126/126/122
f 126/126/122 140/139/134 136/137/132
f 140/139/134 130/131/127 129/130/126
f 129/130/126 139/140/135 140/139/134
f 140/139/134 126/126/122 128/128/124
f 128/128/124 130/131/127 140/139/134
f 108/109/107 100/99/98 105/104/102
f 105/104/102 144/144/139 108/109/107
f 109/106/104 108/109/107 144/144/139
f 144/144/139 145/145/114 109/106/104
f 149/146/140 146/147/141 147/148/142
f 147/148/142 148/149/143 149/146/140
f 148/149/143 147/148/142 105/104/102
f 105/104/102 104/105/103 148/149/143
f 103/103/101 59/60/60 62/59/59
f 62/59/59 150/150/144 103/103/101
f 122/122/118 141/141/136 143/143/138
f 143/143/138 151/151/145 122/122/118
f 99/100/99 111/111/109 152/152/146
f 152/152/146 104/105/103 99/100/99
f 154/153/147 153/154/148 145/145/114
f 145/145/114 144/144/139 154/153/147
f 154/153/147 144/144/139 105/104/102
f 105/104/102 147/148/142 154/153/147
f 154/153/147 147/148/142 146/147/141
f 146/147/141 153/154/148 154/153/147
f 155/155/149 148/149/143 104/105/103
f 104/105/103 152/152/146 155/155/149
f 159/156/150 156/157/151 157/158/152
f 157/158/152 158/159/153 159/156/150
f 160/160/148 71/71/71 70/70/70
f 70/70/70 117/116/114 160/160/148
f 161/161/141 72/72/72 71/71/71
f 71/71/71 160/160/148 161/161/141
f 162/162/140 73/73/73 72/72/72
f 72/72/72 161/161/141 162/162/140
f 155/155/149 157/158/152 156/157/151
f 156/157/151 163/163/154 155/155/149
f 111/111/109 122/122/118 151/151/145
f 151/151/145 152/152/146 111/111/109
f 157/158/152 155/155/149 152/152/146
f 152/152/146 151/151/145 157/158/152
f 148/149/143 155/155/149 163/163/154
f 163/163/154 149/146/140 148/149/143
f 167/164/155 164/165/156 165/166/150
f 165/166/150 166/167/157 167/164/155
f 169/168/158 167/164/155 166/167/157
f 166/167/157 168/169/159 169/168/158
f 171/170/160 169/168/158 168/169/159
f 168/169/159 170/171/161 171/170/160
f 175/172/162 172/173/163 173/174/164
f 173/174/164 174/175/165 175/172/162
f 170/171/161 175/172/162 174/175/165
f 174/175/165 171/170/160 170/171/161
f 177/176/166 174/175/165 173/174/164
f 173/174/164 176/177/46 177/176/166
f 179/178/167 178/179/140 167/164/155
f 167/164/155 169/168/158 179/178/167
f 89/90/89 180/180/168 181/181/169
f 181/181/169 90/91/90 89/90/89
f 182/182/154 164/165/156 167/164/155
f 167/164/155 178/179/140 182/182/154
f 174/175/165 177/176/166 183/183/170
f 183/183/170 171/170/160 174/175/165
f 171/170/160 183/183/170 179/178/167
f 179/178/167 169/168/158 171/170/160
f 89/90/89 184/184/171 185/185/172
f 185/185/172 180/180/168 89/90/89
f 90/91/90 181/181/169 150/150/144
f 150/150/144 62/59/59 90/91/90
f 143/143/138 158/159/153 157/158/152
f 157/158/152 151/151/145 143/143/138
f 180/180/168 166/167/157 165/166/150
f 165/166/150 181/181/169 180/180/168
f 165/166/150 186/186/173 150/150/144
f 150/150/144 181/181/169 165/166/150
f 143/143/138 103/103/101 150/150/144
f 150/150/144 186/186/173 143/143/138
f 168/169/159 166/167/157 180/180/168
f 180/180/168 185/185/172 168/169/159
f 172/173/163 175/172/162 185/185/172
f 185/185/172 184/184/171 172/173/163
f 170/171/161 168/169/159 185/185/172
f 185/185/172 175/172/162 170/171/161
