# Blender 3.6.2
# www.blender.org
mtllib paer_low.mtl
o paer_low
v -0.210974 0.043146 0.233696
v -0.223349 0.039318 0.266421
v -0.200561 0.054587 0.267897
v -0.193601 0.057618 0.254758
v -0.207938 0.036435 0.298015
v -0.190013 0.050176 0.283908
v -0.174023 0.047291 0.284321
v -0.162430 0.033346 0.303461
v -0.176685 0.052786 0.253294
v -0.181540 0.037569 0.227268
v -0.147435 0.031470 0.261272
v -0.166180 0.047995 0.267668
v -0.174023 0.047291 0.284321
v -0.162430 0.033346 0.303461
v -0.131716 0.001417 0.250138
v -0.171106 0.009108 0.213982
v -0.220978 0.015455 0.224488
v -0.242237 0.013694 0.264581
v -0.222147 0.012722 0.312590
v -0.153868 0.004864 0.322571
v -0.153868 0.004864 0.322571
v -0.222277 -0.025629 0.332310
v -0.148419 -0.039166 0.333498
v -0.148419 -0.039166 0.333498
v -0.107473 -0.038302 0.263840
v -0.158570 -0.027758 0.192513
v -0.230855 -0.020685 0.202568
v -0.264662 -0.025037 0.257965
v -0.244340 -0.077677 0.192423
v -0.279438 -0.070126 0.253261
v -0.238961 -0.077437 0.337193
v -0.149754 -0.085561 0.340392
v -0.149754 -0.085561 0.340392
v -0.110944 -0.088598 0.263072
v -0.156513 -0.087058 0.185843
v -0.134073 -0.119708 0.259307
v -0.172829 -0.121589 0.211031
v -0.239610 -0.111008 0.215440
v -0.256098 -0.112369 0.261123
v -0.228679 -0.116371 0.314065
v -0.165939 -0.123749 0.317969
v -0.165939 -0.123749 0.317969
v -0.208034 -0.130980 0.273524
v -0.177635 -0.132660 0.279412
v -0.165939 -0.123749 0.317969
v -0.228679 -0.116371 0.314065
v -0.256098 -0.112369 0.261123
v -0.228978 -0.126496 0.256001
v -0.189154 -0.132172 0.238770
v -0.220819 -0.126439 0.235532
v -0.239610 -0.111008 0.215440
v -0.172829 -0.121589 0.211031
v -0.162995 -0.133378 0.258118
v -0.134073 -0.119708 0.259307
v -0.194701 0.053852 0.268111
v -0.190176 0.055838 0.259474
v -0.187768 0.050960 0.278639
v -0.177348 0.049068 0.278853
v -0.179027 0.052671 0.258571
v -0.172152 0.049531 0.267963
v -0.177348 0.049068 0.278853
v -0.190998 0.049828 0.267279
v -0.188389 0.050979 0.262266
v -0.186986 0.048152 0.273384
v -0.180984 0.047056 0.273470
v -0.181907 0.049144 0.261760
v -0.177941 0.047324 0.267175
v -0.180984 0.047056 0.273470
v -0.188389 0.050979 0.262266
v -0.190998 0.049828 0.267279
v -0.177876 0.067386 0.276695
v -0.175331 0.068537 0.271649
v -0.186986 0.048152 0.273384
v -0.173701 0.065711 0.282960
v -0.180984 0.047056 0.273470
v -0.167625 0.064615 0.283148
v -0.181907 0.049144 0.261760
v -0.168787 0.066702 0.271247
v -0.177941 0.047324 0.267175
v -0.164671 0.064883 0.276811
v -0.180984 0.047056 0.273470
v -0.167625 0.064615 0.283148
v -0.176166 0.086265 0.278903
v -0.172763 0.087810 0.272119
v -0.170502 0.084016 0.287371
v -0.162296 0.082544 0.287674
v -0.163974 0.085346 0.271601
v -0.158383 0.082903 0.279135
v -0.162296 0.082544 0.287674
v -0.173942 0.108948 0.280679
v -0.176694 0.106986 0.280124
v -0.169706 0.104270 0.290558
v -0.168538 0.106523 0.288447
v -0.170616 0.109452 0.274578
v -0.172518 0.108225 0.271800
v -0.162122 0.107659 0.273884
v -0.161739 0.105678 0.271161
v -0.159564 0.102555 0.290987
v -0.160792 0.105025 0.288998
v -0.154786 0.103000 0.280463
v -0.156836 0.105490 0.280608
v -0.176694 0.106986 0.280124
v -0.172518 0.108225 0.271800
v -0.169706 0.104270 0.290558
v -0.159564 0.102555 0.290987
v -0.161739 0.105678 0.271161
v -0.154786 0.103000 0.280463
v -0.159564 0.102555 0.290987
vn -0.2116 0.9132 -0.3482
vn -0.4552 0.6351 -0.6240
vn -0.7465 0.6630 0.0563
vn -0.4930 0.8586 0.1407
vn -0.1904 0.8309 0.5229
vn -0.3535 0.6652 0.6577
vn 0.4932 0.6118 0.6184
vn 0.3470 0.8195 0.4561
vn 0.2919 0.5834 -0.7579
vn 0.4130 0.7872 -0.4581
vn 0.6400 0.7638 -0.0832
vn 0.8249 0.5542 -0.1115
vn 0.3469 0.8195 0.4561
vn 0.4932 0.6118 0.6185
vn 0.8652 0.4727 -0.1675
vn 0.3542 0.5156 -0.7802
vn -0.5010 0.5283 -0.6856
vn -0.8774 0.4761 0.0597
vn -0.5070 0.4518 0.7341
vn 0.5014 0.4741 0.7238
vn 0.5014 0.4741 0.7237
vn -0.4453 0.2888 0.8476
vn 0.5266 0.2156 0.8223
vn 0.9828 0.1805 -0.0394
vn 0.4277 0.2374 -0.8722
vn -0.4350 0.3464 -0.8311
vn -0.9305 0.3639 0.0422
vn -0.4838 -0.0843 -0.8711
vn -0.9997 0.0195 0.0162
vn -0.5743 -0.0809 0.8147
vn 0.4623 -0.2282 0.8569
vn 0.9685 -0.2407 -0.0635
vn 0.4290 -0.1796 -0.8853
vn 0.7128 -0.6993 -0.0549
vn 0.2435 -0.7075 -0.6635
vn -0.4769 -0.6290 -0.6139
vn -0.8070 -0.5826 0.0963
vn -0.4639 -0.6478 0.6042
vn 0.2768 -0.7262 0.6293
vn -0.2034 -0.9668 0.1547
vn 0.0567 -0.9819 0.1808
vn -0.3741 -0.9274 0.0060
vn 0.0088 -0.9617 -0.2738
vn -0.2568 -0.9183 -0.3015
vn -0.4769 -0.6291 -0.6139
vn 0.2589 -0.9640 -0.0608
vn 0.2772 0.9002 0.3359
vn 0.2881 0.9351 0.2062
vn 0.2218 0.9740 0.0462
vn 0.1390 0.9876 0.0734
vn 0.1819 0.9349 0.3046
vn 0.0985 0.9831 0.1541
vn -0.1956 0.9351 -0.2955
vn -0.4762 0.8566 0.1987
vn -0.4939 0.4848 0.7218
vn 0.4453 -0.3211 0.8359
vn 0.3783 0.6102 -0.6961
vn 0.9608 -0.1581 -0.2276
vn -0.4359 0.3722 -0.8194
vn -0.4761 0.8567 0.1987
vn -0.9215 0.2938 0.2539
vn -0.4938 0.4849 0.7218
vn -0.4958 -0.1347 0.8579
vn 0.4452 -0.3210 0.8359
vn 0.4793 -0.5015 0.7203
vn 0.4901 -0.0288 -0.8712
vn 0.3784 0.6102 -0.6961
vn 0.8907 -0.4419 -0.1069
vn 0.4792 -0.5015 0.7203
vn 0.4453 -0.3210 0.8359
vn -0.5031 0.0267 -0.8638
vn -0.9856 0.0098 0.1686
vn -0.5319 -0.1101 0.8396
vn 0.5388 -0.2664 0.7992
vn 0.4441 -0.0773 -0.8926
vn 0.9657 -0.2284 -0.1234
vn 0.0327 0.9343 0.3550
vn -0.0728 0.9723 0.2222
vn -0.9908 0.0660 0.1183
vn -0.5588 -0.0212 0.8290
vn -0.5147 0.1141 -0.8497
vn 0.0831 0.9962 -0.0266
vn 0.4019 0.0324 -0.9151
vn 0.3050 0.9501 -0.0655
vn 0.2960 0.8949 0.3340
vn 0.5384 -0.1185 0.8343
vn 0.4236 0.9008 0.0961
vn 0.9873 -0.0827 -0.1354
vn -0.5147 0.1141 -0.8498
vn 0.4020 0.0324 -0.9151
vn 0.9873 -0.0828 -0.1354
vt 0.096174 0.510983
vt 0.157864 0.514156
vt 0.142662 0.580867
vt 0.091315 0.548449
vt 0.061436 0.587916
vt 0.097694 0.637607
vt 0.003919 0.672749
vt 0.027637 0.597123
vt 0.150841 0.455366
vt 0.089004 0.465759
vt 0.064234 0.428667
vt 0.090990 0.374423
vt 0.024226 0.423061
vt 0.004740 0.345699
vt 0.151109 0.320201
vt 0.204529 0.415830
vt 0.218938 0.519214
vt 0.203064 0.607544
vt 0.139722 0.691978
vt 0.018274 0.774629
vt 0.003906 0.240242
vt 0.187747 0.772018
vt 0.085446 0.887009
vt 0.071556 0.122875
vt 0.199459 0.230174
vt 0.283402 0.375384
vt 0.306027 0.511380
vt 0.293340 0.633394
vt 0.431127 0.517095
vt 0.393540 0.654325
vt 0.299661 0.821618
vt 0.179628 0.974702
vt 0.166438 0.035783
vt 0.292958 0.173365
vt 0.398248 0.332726
vt 0.376315 0.148303
vt 0.484191 0.312558
vt 0.507254 0.531731
vt 0.476960 0.699048
vt 0.384026 0.853939
vt 0.304390 0.996094
vt 0.288233 0.003906
vt 0.588224 0.003915
vt 0.543442 0.097777
vt 0.476299 0.089151
vt 0.445327 0.003906
vt 0.657828 0.119935
vt 0.591481 0.134533
vt 0.474273 0.244383
vt 0.506567 0.175655
vt 0.575896 0.179639
vt 0.627038 0.226866
vt 0.377992 0.140131
vt 0.448677 0.137989
vt 0.084700 0.510316
vt 0.080179 0.542523
vt 0.058833 0.573066
vt 0.035280 0.578306
vt 0.079138 0.473125
vt 0.060310 0.444454
vt 0.033502 0.441305
vt 0.072638 0.510290
vt 0.069495 0.535556
vt 0.056744 0.556603
vt 0.043060 0.560271
vt 0.069421 0.482137
vt 0.058110 0.461541
vt 0.042628 0.458858
vt 0.745156 0.057473
vt 0.754276 0.003917
vt 0.765875 0.004763
vt 0.759346 0.058472
vt 0.778456 0.013156
vt 0.776204 0.063681
vt 0.790080 0.018566
vt 0.789288 0.067077
vt 0.728660 0.055797
vt 0.740920 0.005357
vt 0.712165 0.054710
vt 0.726916 0.007539
vt 0.696971 0.050425
vt 0.712077 0.003906
vt 0.736465 0.104086
vt 0.753004 0.103382
vt 0.775788 0.105281
vt 0.794251 0.105997
vt 0.718199 0.097913
vt 0.698575 0.091694
vt 0.679180 0.085037
vt 0.010151 0.022760
vt 0.011076 0.044133
vt 0.004749 0.048809
vt 0.003906 0.018750
vt 0.024814 0.058834
vt 0.024368 0.050947
vt 0.046849 0.044763
vt 0.040319 0.040564
vt 0.023307 0.011465
vt 0.023077 0.003906
vt 0.041102 0.021324
vt 0.046857 0.016825
vt 0.728376 0.149862
vt 0.747358 0.150198
vt 0.773481 0.149962
vt 0.795470 0.149693
vt 0.707543 0.141901
vt 0.684483 0.133431
vt 0.660731 0.125327
s 1
usemtl PearShdr
f 4/1/1 1/2/2 2/3/3
f 2/3/3 3/4/4 4/1/1
f 6/5/5 3/4/4 2/3/3
f 2/3/3 5/6/6 6/5/5
f 8/7/7 7/8/8 6/5/5
f 6/5/5 5/6/6 8/7/7
f 10/9/9 1/2/2 4/1/1
f 4/1/1 9/10/10 10/9/9
f 12/11/11 11/12/12 10/9/9
f 10/9/9 9/10/10 12/11/11
f 11/12/12 12/11/11 13/13/13
f 13/13/13 14/14/14 11/12/12
f 11/12/12 15/15/15 16/16/16
f 16/16/16 10/9/9 11/12/12
f 10/9/9 16/16/16 17/17/17
f 17/17/17 1/2/2 10/9/9
f 1/2/2 17/17/17 18/18/18
f 18/18/18 2/3/3 1/2/2
f 2/3/3 18/18/18 19/19/19
f 19/19/19 5/6/6 2/3/3
f 5/6/6 19/19/19 20/20/20
f 20/20/20 8/7/7 5/6/6
f 15/15/15 11/12/12 14/14/14
f 14/14/14 21/21/21 15/15/15
f 19/19/19 22/22/22 23/23/23
f 23/23/23 20/20/20 19/19/19
f 21/21/21 24/24/23 25/25/24
f 25/25/24 15/15/15 21/21/21
f 15/15/15 25/25/24 26/26/25
f 26/26/25 16/16/16 15/15/15
f 16/16/16 26/26/25 27/27/26
f 27/27/26 17/17/17 16/16/16
f 17/17/17 27/27/26 28/28/27
f 28/28/27 18/18/18 17/17/17
f 18/18/18 28/28/27 22/22/22
f 22/22/22 19/19/19 18/18/18
f 27/27/26 29/29/28 30/30/29
f 30/30/29 28/28/27 27/27/26
f 28/28/27 30/30/29 31/31/30
f 31/31/30 22/22/22 28/28/27
f 22/22/22 31/31/30 32/32/31
f 32/32/31 23/23/23 22/22/22
f 24/24/23 33/33/31 34/34/32
f 34/34/32 25/25/24 24/24/23
f 25/25/24 34/34/32 35/35/33
f 35/35/33 26/26/25 25/25/24
f 26/26/25 35/35/33 29/29/28
f 29/29/28 27/27/26 26/26/25
f 34/34/32 36/36/34 37/37/35
f 37/37/35 35/35/33 34/34/32
f 35/35/33 37/37/35 38/38/36
f 38/38/36 29/29/28 35/35/33
f 38/38/36 39/39/37 30/30/29
f 30/30/29 29/29/28 38/38/36
f 30/30/29 39/39/37 40/40/38
f 40/40/38 31/31/30 30/30/29
f 31/31/30 40/40/38 41/41/39
f 41/41/39 32/32/31 31/31/30
f 33/33/31 42/42/39 36/36/34
f 36/36/34 34/34/32 33/33/31
f 46/43/38 43/44/40 44/45/41
f 44/45/41 45/46/39 46/43/38
f 46/43/38 47/47/37 48/48/42
f 48/48/42 43/44/40 46/43/38
f 52/49/35 49/50/43 50/51/44
f 50/51/44 51/52/45 52/49/35
f 51/52/45 50/51/44 48/48/42
f 48/48/42 47/47/37 51/52/45
f 54/53/34 53/54/46 49/50/43
f 49/50/43 52/49/35 54/53/34
f 45/46/39 44/45/41 53/54/46
f 53/54/46 54/53/34 45/46/39
f 53/54/46 44/45/41 43/44/40
f 43/44/40 49/50/43 53/54/46
f 43/44/40 48/48/42 50/51/44
f 50/51/44 49/50/43 43/44/40
f 56/55/47 4/1/1 3/4/4
f 3/4/4 55/56/48 56/55/47
f 55/56/48 3/4/4 6/5/5
f 6/5/5 57/57/49 55/56/48
f 57/57/49 6/5/5 7/8/8
f 7/8/8 58/58/50 57/57/49
f 59/59/51 9/10/10 4/1/1
f 4/1/1 56/55/47 59/59/51
f 60/60/52 12/11/11 9/10/10
f 9/10/10 59/59/51 60/60/52
f 61/61/50 13/13/13 12/11/11
f 12/11/11 60/60/52 61/61/50
f 63/62/53 56/55/47 55/56/48
f 55/56/48 62/63/54 63/62/53
f 62/63/54 55/56/48 57/57/49
f 57/57/49 64/64/55 62/63/54
f 64/64/55 57/57/49 58/58/50
f 58/58/50 65/65/56 64/64/55
f 66/66/57 59/59/51 56/55/47
f 56/55/47 63/62/53 66/66/57
f 67/67/58 60/60/52 59/59/51
f 59/59/51 66/66/57 67/67/58
f 68/68/56 61/61/50 60/60/52
f 60/60/52 67/67/58 68/68/56
f 72/69/59 69/70/53 70/71/60
f 70/71/60 71/72/61 72/69/59
f 71/72/61 70/71/60 73/73/62
f 73/73/62 74/74/63 71/72/61
f 74/74/63 73/73/62 75/75/64
f 75/75/64 76/76/65 74/74/63
f 78/77/66 77/78/67 69/70/53
f 69/70/53 72/69/59 78/77/66
f 80/79/68 79/80/58 77/78/67
f 77/78/67 78/77/66 80/79/68
f 82/81/69 81/82/70 79/80/58
f 79/80/58 80/79/68 82/81/69
f 84/83/71 72/69/59 71/72/61
f 71/72/61 83/84/72 84/83/71
f 83/84/72 71/72/61 74/74/63
f 74/74/63 85/85/73 83/84/72
f 85/85/73 74/74/63 76/76/65
f 76/76/65 86/86/74 85/85/73
f 87/87/75 78/77/66 72/69/59
f 72/69/59 84/83/71 87/87/75
f 88/88/76 80/79/68 78/77/66
f 78/77/66 87/87/75 88/88/76
f 89/89/74 82/81/69 80/79/68
f 80/79/68 88/88/76 89/89/74
f 93/90/77 90/91/78 91/92/79
f 91/92/79 92/93/80 93/90/77
f 95/94/81 91/92/79 90/91/78
f 90/91/78 94/95/82 95/94/81
f 97/96/83 95/94/81 94/95/82
f 94/95/82 96/97/84 97/96/83
f 99/98/85 93/90/77 92/93/80
f 92/93/80 98/99/86 99/98/85
f 101/100/87 99/98/85 98/99/86
f 98/99/86 100/101/88 101/100/87
f 100/101/88 97/96/83 96/97/84
f 96/97/84 101/100/87 100/101/88
f 103/102/89 84/83/71 83/84/72
f 83/84/72 102/103/79 103/102/89
f 102/103/79 83/84/72 85/85/73
f 85/85/73 104/104/80 102/103/79
f 104/104/80 85/85/73 86/86/74
f 86/86/74 105/105/86 104/104/80
f 106/106/90 87/87/75 84/83/71
f 84/83/71 103/102/89 106/106/90
f 107/107/91 88/88/76 87/87/75
f 87/87/75 106/106/90 107/107/91
f 108/108/86 89/89/74 88/88/76
f 88/88/76 107/107/91 108/108/86
f 96/97/84 94/95/82 90/91/78
f 90/91/78 93/90/77 96/97/84
f 101/100/87 96/97/84 93/90/77
f 93/90/77 99/98/85 101/100/87
